<?xml version="1.0" encoding="utf-8"?>
<!-- Generator: Adobe Illustrator 19.0.1, SVG Export Plug-In . SVG Version: 6.00 Build 0)  -->
<svg version="1.1" xmlns="http://www.w3.org/2000/svg" xmlns:xlink="http://www.w3.org/1999/xlink" x="0px" y="0px"
	 viewBox="0 0 400 400" enable-background="new 0 0 400 400" xml:space="preserve">
<g id="Layer_7">
	<g id="caramel">
		<path opacity="0.2" fill="#231F20" d="M58.7,231.7c-0.5,8.1-14.3,23.1-13.1,31.4c0.6,4.1,12.6,18.1,25.6,36s27.9,35.8,32.3,35.8
			c20,0,53.8-23.5,102-35.8c63.8-16.4,117.5-40,119.6-42.6c3.1-3.7,18.3-30.8,14.4-33c-3.9-2.3-156.6,11.1-176.8,11.1
			S59.4,220.4,58.7,231.7z"/>
		<linearGradient id="SVGID_1_" gradientUnits="userSpaceOnUse" x1="55.4332" y1="191.5564" x2="344.5669" y2="191.5564">
			<stop  offset="0" style="stop-color:#DE8633"/>
			<stop  offset="0.4492" style="stop-color:#EE9E48"/>
			<stop  offset="1" style="stop-color:#DE8633"/>
		</linearGradient>
		<path fill="url(#SVGID_1_)" d="M331.8,231.6c5.6-2.9,9.3-6,9.3-19.4c0-13.3-2-30.7,0-42.7s8.7-24.7-4.7-42s-46.7-42.7-53.4-47.4
			c-6.7-4.7-44.6,4-77.3,15.3s-100.8,46-142.2,55.4c-10.5,2.4-7.6,25.4-7.6,36.7c0,11.3-0.7,50.7-0.4,53.4c0.4,2.7,12.6,16,16.6,20
			s26.2,38,32.8,42c6.6,4,36.6-2,46.6-6S327.5,233.8,331.8,231.6z"/>
		<path fill="#C97526" d="M109.2,297.1c-3.7-6.4-4-20.9-6.6-33.8c-4.7-22.9-10.3-48.7-4.4-53.8c9.3-8,40.6-6.1,78-20.8
			s72-34.9,141.9-53.6c28.2-7.5,24.1,11.9,19.8,25.7c-1.9,6.3-5.5,21.4-1.3,30.7s3.4,23.8-2.7,32.7c-3.1,4.5-59,24.6-113.6,43.8
			C166.4,287,113.8,305.1,109.2,297.1z"/>
		<path opacity="0.4" fill="#F6AB54" d="M100.2,241.3c-1.9-4.8-7.2-26.4,1.7-30.8c8.9-4.5,56.7-3.4,98-26.7s129.9-56.6,134.8-46.9
			c4.9,9.7,2.4,21.6-0.2,14.7c-3.5-9.2-25.5-6.4-44-0.3c-28.4,9.2-60.3,23.6-93.1,42.8s-82.2,14.7-89.7,20.9
			c-7.5,6.2-5.5,19.9-4.1,25C105,245,105,253.2,100.2,241.3z"/>
		<path opacity="0.8" fill="#F6AB54" d="M60.2,160.1c5.8,8.3,29.4,38.8,36.8,41.8c7.4,2.9,50.5-7.9,62.9-13
			c12.3-5.1,51.5-19.7,72.6-28.8c37.5-16.2,51.8-20.3,64.4-23.6c12.6-3.3,35.3-6.2,37.3-5.8s-2.7-7.9-9.6-7.2
			c-6.8,0.7-49,7.2-73.3,20.5s-110.3,41.7-128,39C89,177.9,75.4,155.1,67.7,154S56.5,154.9,60.2,160.1z"/>
		<path opacity="0.5" fill="#F6AB54" d="M145.2,171.1c-9.1-1.6-18.9-7.2-5.9-26.4s17.8-24,20.2-26c2.4-2.1,40-19.2,40.5-16.4
			c0.6,2.7-27.5,47.6-26.8,50.3c0.7,2.7,12-6.5,20.2-22.6s16.8-30.1,19.2-31.8c2.4-1.7,40.7-14,44.8-13c4.1,1-21.2,20.5-19.9,27
			c1.4,6.5,31.2-1.8,26.4,11.3c-4.8,13.1-39.7,18.2-40.7,24.7c-1,6.5-14.3,8.5-26.5,12.5C184.5,164.7,152.2,172.3,145.2,171.1z"/>
		<path opacity="0.5" fill="#F6AB54" d="M60.4,171.6c1.6-4.9,25.5,24.3,32.2,39c2.3,5,0.6,33.2,5,44.1c4.4,10.8,9,45.8-0.6,35.9
			c-5.7-5.9-11.8-22.9-22.3-34.2c-7.1-7.7-15.5-13.3-15.1-20C60.6,218.6,58,179.2,60.4,171.6z"/>
	</g>
</g>
<g id="nyt_x5F_exporter_x5F_info" display="none">
</g>
</svg>
